<svg width="159" height="35" viewBox="0 0 159 35" fill="none" xmlns="http://www.w3.org/2000/svg">
<path d="M26.424 3.536V26H20.952V12.528L15.928 26H11.512L6.456 12.496V26H0.984V3.536H7.448L13.752 19.088L19.992 3.536H26.424ZM33.111 6.288C32.151 6.288 31.3617 6.01067 30.743 5.456C30.1457 4.88 29.847 4.176 29.847 3.344C29.847 2.49067 30.1457 1.78667 30.743 1.232C31.3617 0.655998 32.151 0.367998 33.111 0.367998C34.0497 0.367998 34.8177 0.655998 35.415 1.232C36.0337 1.78667 36.343 2.49067 36.343 3.344C36.343 4.176 36.0337 4.88 35.415 5.456C34.8177 6.01067 34.0497 6.288 33.111 6.288ZM35.831 8.144V26H30.359V8.144H35.831ZM50.6765 7.952C52.7672 7.952 54.4312 8.63467 55.6685 10C56.9272 11.344 57.5565 13.2 57.5565 15.568V26H52.1165V16.304C52.1165 15.1093 51.8072 14.1813 51.1885 13.52C50.5698 12.8587 49.7378 12.528 48.6925 12.528C47.6472 12.528 46.8152 12.8587 46.1965 13.52C45.5778 14.1813 45.2685 15.1093 45.2685 16.304V26H39.7965V8.144H45.2685V10.512C45.8232 9.72267 46.5698 9.104 47.5085 8.656C48.4472 8.18667 49.5032 7.952 50.6765 7.952ZM64.111 6.288C63.151 6.288 62.3617 6.01067 61.743 5.456C61.1457 4.88 60.847 4.176 60.847 3.344C60.847 2.49067 61.1457 1.78667 61.743 1.232C62.3617 0.655998 63.151 0.367998 64.111 0.367998C65.0497 0.367998 65.8177 0.655998 66.415 1.232C67.0337 1.78667 67.343 2.49067 67.343 3.344C67.343 4.176 67.0337 4.88 66.415 5.456C65.8177 6.01067 65.0497 6.288 64.111 6.288ZM66.831 8.144V26H61.359V8.144H66.831ZM85.7058 26.224C84.0631 26.224 82.5911 25.9573 81.2898 25.424C79.9884 24.8907 78.9431 24.1013 78.1538 23.056C77.3858 22.0107 76.9804 20.752 76.9378 19.28H82.7618C82.8471 20.112 83.1351 20.752 83.6258 21.2C84.1164 21.6267 84.7564 21.84 85.5458 21.84C86.3564 21.84 86.9964 21.6587 87.4658 21.296C87.9351 20.912 88.1698 20.3893 88.1698 19.728C88.1698 19.1733 87.9778 18.7147 87.5938 18.352C87.2311 17.9893 86.7724 17.6907 86.2178 17.456C85.6844 17.2213 84.9164 16.9547 83.9138 16.656C82.4631 16.208 81.2791 15.76 80.3618 15.312C79.4444 14.864 78.6551 14.2027 77.9938 13.328C77.3324 12.4533 77.0018 11.312 77.0018 9.904C77.0018 7.81333 77.7591 6.18133 79.2738 5.008C80.7884 3.81333 82.7618 3.216 85.1938 3.216C87.6684 3.216 89.6631 3.81333 91.1778 5.008C92.6924 6.18133 93.5031 7.824 93.6098 9.936H87.6898C87.6471 9.21067 87.3804 8.64533 86.8898 8.24C86.3991 7.81333 85.7698 7.6 85.0017 7.6C84.3404 7.6 83.8071 7.78133 83.4018 8.144C82.9964 8.48533 82.7938 8.98667 82.7938 9.648C82.7938 10.3733 83.1351 10.9387 83.8177 11.344C84.5004 11.7493 85.5671 12.1867 87.0178 12.656C88.4684 13.1467 89.6418 13.616 90.5378 14.064C91.4551 14.512 92.2444 15.1627 92.9058 16.016C93.5671 16.8693 93.8978 17.968 93.8978 19.312C93.8978 20.592 93.5671 21.7547 92.9058 22.8C92.2658 23.8453 91.3271 24.6773 90.0898 25.296C88.8524 25.9147 87.3911 26.224 85.7058 26.224ZM108.241 7.952C110.289 7.952 111.932 8.63467 113.169 10C114.407 11.344 115.025 13.2 115.025 15.568V26H109.585V16.304C109.585 15.1093 109.276 14.1813 108.657 13.52C108.039 12.8587 107.207 12.528 106.161 12.528C105.116 12.528 104.284 12.8587 103.665 13.52C103.047 14.1813 102.737 15.1093 102.737 16.304V26H97.2653V2.32H102.737V10.544C103.292 9.75467 104.049 9.12533 105.009 8.656C105.969 8.18667 107.047 7.952 108.241 7.952ZM126.956 26.256C125.206 26.256 123.628 25.8827 122.22 25.136C120.833 24.3893 119.734 23.3227 118.924 21.936C118.134 20.5493 117.74 18.928 117.74 17.072C117.74 15.2373 118.145 13.6267 118.956 12.24C119.766 10.832 120.876 9.75467 122.284 9.008C123.692 8.26133 125.27 7.888 127.02 7.888C128.769 7.888 130.348 8.26133 131.756 9.008C133.164 9.75467 134.273 10.832 135.084 12.24C135.894 13.6267 136.3 15.2373 136.3 17.072C136.3 18.9067 135.884 20.528 135.052 21.936C134.241 23.3227 133.121 24.3893 131.692 25.136C130.284 25.8827 128.705 26.256 126.956 26.256ZM126.956 21.52C128.001 21.52 128.886 21.136 129.612 20.368C130.358 19.6 130.732 18.5013 130.732 17.072C130.732 15.6427 130.369 14.544 129.644 13.776C128.94 13.008 128.065 12.624 127.02 12.624C125.953 12.624 125.068 13.008 124.364 13.776C123.66 14.5227 123.308 15.6213 123.308 17.072C123.308 18.5013 123.649 19.6 124.332 20.368C125.036 21.136 125.91 21.52 126.956 21.52ZM144.675 10.672C145.208 9.84 145.944 9.168 146.883 8.656C147.821 8.144 148.92 7.888 150.179 7.888C151.651 7.888 152.984 8.26133 154.179 9.008C155.373 9.75467 156.312 10.8213 156.995 12.208C157.699 13.5947 158.051 15.2053 158.051 17.04C158.051 18.8747 157.699 20.496 156.995 21.904C156.312 23.2907 155.373 24.368 154.179 25.136C152.984 25.8827 151.651 26.256 150.179 26.256C148.941 26.256 147.843 26 146.883 25.488C145.944 24.976 145.208 24.3147 144.675 23.504V34.512H139.203V8.144H144.675V10.672ZM152.483 17.04C152.483 15.6747 152.099 14.608 151.331 13.84C150.584 13.0507 149.656 12.656 148.547 12.656C147.459 12.656 146.531 13.0507 145.763 13.84C145.016 14.6293 144.643 15.7067 144.643 17.072C144.643 18.4373 145.016 19.5147 145.763 20.304C146.531 21.0933 147.459 21.488 148.547 21.488C149.635 21.488 150.563 21.0933 151.331 20.304C152.099 19.4933 152.483 18.4053 152.483 17.04Z" fill="#6E8CFB"/>
</svg>
